<?xml version="1.0" standalone="no"?>
<!DOCTYPE svg PUBLIC "-//W3C//DTD SVG 20010904//EN"
 "http://www.w3.org/TR/2001/REC-SVG-20010904/DTD/svg10.dtd">
<svg version="1.0" xmlns="http://www.w3.org/2000/svg"
 width="200.000000pt" height="170.000000pt" viewBox="0 0 200.000000 170.000000"
 preserveAspectRatio="xMidYMid meet">

<g transform="translate(0.000000,170.000000) scale(0.100000,-0.100000)"
fill="#000000" stroke="none">
<path d="M1140 1450 c0 -6 11 -33 25 -60 14 -27 25 -52 25 -55 0 -3 -12 -5
-26 -5 -16 0 -37 -12 -55 -31 -16 -18 -32 -29 -35 -26 -4 3 -14 -1 -22 -10
-15 -15 -17 -14 -22 8 -6 23 -6 23 -17 4 -11 -19 -11 -19 -48 0 -20 11 -70 46
-112 78 -82 61 -83 62 -83 48 0 -5 21 -23 48 -40 26 -17 63 -45 82 -62 l35
-30 -30 13 c-16 7 -58 29 -92 50 -35 21 -63 35 -63 31 0 -4 39 -48 88 -96 55
-57 79 -87 65 -82 -16 4 -23 2 -23 -8 0 -7 16 -18 37 -23 39 -10 50 -32 32
-66 -7 -13 -6 -16 4 -12 26 9 65 -15 96 -59 16 -25 27 -47 24 -51 -4 -3 -1 -6
5 -6 13 0 57 -79 49 -87 -3 -2 3 -13 14 -24 10 -10 19 -28 19 -39 0 -17 -3
-18 -26 -9 -29 10 -40 7 -29 -10 3 -6 17 -11 30 -11 13 0 27 -4 30 -10 3 -6
17 -10 30 -10 27 0 89 -20 158 -50 l47 -21 -29 -57 c-16 -31 -37 -65 -48 -74
-26 -24 -91 -50 -117 -46 -11 1 -28 -2 -36 -6 -12 -7 -13 -6 -2 5 23 25 12 30
-18 9 -52 -37 -33 -7 25 39 30 24 55 48 55 53 0 9 -84 -47 -126 -84 -11 -10
-26 -18 -32 -18 -7 0 -12 -5 -12 -11 0 -9 -25 -10 -89 -6 -100 7 -121 13 -121
33 0 8 -7 14 -15 14 -8 0 -13 -6 -11 -12 1 -7 1 -10 -1 -5 -9 15 -53 6 -63
-12 -14 -28 -13 -31 14 -31 15 0 26 -7 29 -20 5 -19 14 -20 241 -20 l236 0 20
-41 c20 -38 23 -40 53 -34 51 11 67 24 32 25 -16 1 -39 5 -50 10 -17 7 -14 9
15 11 24 1 28 3 13 6 -13 2 -23 7 -23 9 0 15 32 64 47 73 11 7 13 11 5 11 -11
0 69 113 89 126 4 2 34 -20 65 -49 43 -40 59 -62 60 -83 0 -16 -4 -33 -10 -37
-6 -5 -2 -6 10 -2 17 4 25 -1 38 -30 15 -30 15 -39 4 -63 l-13 -27 -140 -3
c-77 -2 -141 -5 -143 -7 -2 -2 6 -13 17 -24 20 -20 32 -21 186 -21 158 0 165
1 165 20 0 23 -553 1135 -570 1145 -5 3 -10 1 -10 -5z m10 -144 c0 -3 -4 -8
-10 -11 -5 -3 -10 -1 -10 4 0 6 5 11 10 11 6 0 10 -2 10 -4z m75 -36 c12 -24
12 -30 -1 -46 -13 -18 -14 -17 -8 7 4 19 1 28 -12 33 -14 5 -15 4 -5 -8 10
-12 9 -14 -6 -12 -19 3 -28 28 -19 51 8 21 34 8 51 -25z m40 -89 c-8 -8 -31
25 -27 38 3 10 9 7 18 -10 7 -13 11 -26 9 -28z m169 -324 c36 -64 37 -69 22
-91 -11 -17 -22 -23 -38 -20 -13 2 -17 2 -10 -2 20 -9 14 -34 -8 -34 -14 0
-20 6 -18 16 2 10 -3 18 -10 20 -7 1 -8 0 -2 -3 15 -7 2 -23 -15 -17 -8 4 -12
10 -9 15 3 5 -1 10 -8 10 -92 8 -121 17 -114 34 3 8 1 15 -4 15 -6 0 -10 -4
-10 -10 0 -5 -4 -10 -10 -10 -5 0 -10 7 -10 15 0 8 -4 15 -8 15 -4 0 -14 21
-21 48 -8 26 -25 59 -37 75 -15 17 -21 34 -16 45 6 16 7 16 10 -1 2 -9 7 -15
11 -12 4 2 21 -9 36 -25 33 -35 41 -36 69 -13 15 12 13 9 -4 -11 l-25 -29 32
17 c41 21 43 20 43 -8 0 -15 7 -26 20 -29 21 -5 28 -27 9 -27 -5 0 -7 -4 -4
-10 3 -5 17 -10 29 -10 13 0 30 -9 37 -21 14 -20 46 -31 62 -22 4 3 4 10 -2
16 -33 40 -77 136 -75 165 1 17 -3 32 -8 32 -5 0 -6 5 -2 12 4 7 16 -6 29 -33
12 -24 39 -74 59 -112z m-264 112 c0 -6 -4 -7 -10 -4 -5 3 -10 11 -10 16 0 6
5 7 10 4 6 -3 10 -11 10 -16z m363 -309 c4 -15 0 -20 -14 -20 -20 0 -23 8 -13
34 7 20 20 13 27 -14z m-73 -8 c0 -11 -58 -92 -65 -92 -9 0 15 40 36 61 11 11
17 24 14 29 -4 6 -1 10 4 10 6 0 11 -4 11 -8z m-79 -119 c-23 -40 -49 -65 -62
-61 -10 3 -3 15 23 41 39 40 55 48 39 20z m-105 -42 c-5 -8 -76 -14 -76 -6 0
7 64 23 73 18 4 -2 5 -8 3 -12z"/>
<path d="M1099 1378 c-6 -21 -5 -38 2 -38 5 0 9 9 9 20 0 16 -7 28 -11 18z"/>
<path d="M710 1130 c0 -5 7 -10 15 -10 8 0 15 5 15 10 0 6 -7 10 -15 10 -8 0
-15 -4 -15 -10z"/>
<path d="M777 1129 c7 -7 15 -10 18 -7 3 3 -2 9 -12 12 -14 6 -15 5 -6 -5z"/>
<path d="M870 1116 c0 -2 8 -10 18 -17 15 -13 16 -12 3 4 -13 16 -21 21 -21
13z"/>
<path d="M824 1086 c1 -14 6 -29 11 -34 4 -4 5 -2 2 5 -4 6 -3 13 2 15 5 1 3
11 -4 22 -13 17 -14 17 -11 -8z"/>
<path d="M755 1084 c19 -16 19 -16 -5 -10 -23 6 -22 4 10 -24 39 -34 50 -37
50 -14 0 8 -4 13 -9 10 -5 -3 -14 1 -21 9 -7 8 -9 15 -5 15 4 0 2 7 -5 15 -7
8 -18 15 -24 15 -6 0 -2 -8 9 -16z"/>
<path d="M890 1050 c0 -5 10 -10 23 -10 18 0 19 2 7 10 -19 13 -30 13 -30 0z"/>
<path d="M939 1030 c-7 -19 -15 -27 -22 -23 -21 13 -36 11 -30 -3 3 -7 8 -13
11 -12 21 2 20 -8 -8 -61 l-31 -59 -37 14 c-20 9 -57 24 -81 35 -24 11 -46 18
-49 15 -6 -6 92 -52 133 -62 37 -9 32 -34 -7 -35 -31 -2 -31 -2 -5 -6 15 -2
27 -7 26 -11 0 -4 -24 -52 -52 -107 l-52 -100 -42 -1 c-24 0 -46 -3 -49 -7 -4
-3 -13 1 -21 9 -12 11 -18 12 -29 3 -22 -18 -16 2 7 27 12 13 18 28 14 34 -6
9 -10 9 -16 -1 -7 -11 -12 -12 -28 -2 -16 10 -20 9 -25 -2 -6 -17 -36 -20 -36
-5 0 7 -6 7 -17 2 -10 -5 -24 -7 -32 -4 -10 3 -13 -2 -9 -22 3 -14 2 -26 -3
-26 -4 0 -10 10 -12 23 l-4 22 -2 -22 c0 -13 -6 -23 -11 -23 -6 0 -8 -11 -4
-25 4 -17 2 -25 -6 -25 -9 0 -9 -4 1 -17 11 -15 9 -14 -9 1 -22 19 -22 19 -47
-4 -24 -23 -115 -188 -115 -209 0 -6 11 -11 24 -11 15 0 26 -7 29 -20 5 -20
12 -20 179 -18 l173 3 172 344 c95 190 173 350 173 357 0 20 -22 64 -32 64 -5
0 -14 -13 -19 -30z m-559 -490 c0 -11 -7 -20 -15 -20 -18 0 -19 12 -3 28 16
16 18 15 18 -8z"/>
<path d="M870 988 c0 -9 5 -20 10 -23 13 -8 13 5 0 25 -8 13 -10 13 -10 -2z"/>
<path d="M600 983 c0 -5 12 -16 28 -23 15 -8 31 -16 36 -19 5 -2 6 1 2 7 -3 5
-1 12 6 14 8 3 6 7 -5 11 -9 3 -17 2 -17 -4 0 -5 -11 -2 -25 7 -14 9 -25 12
-25 7z"/>
<path d="M1059 933 c-13 -16 -12 -17 4 -4 9 7 17 15 17 17 0 8 -8 3 -21 -13z"/>
<path d="M1115 750 c-16 -7 -17 -9 -3 -9 9 -1 20 4 23 9 7 11 7 11 -20 0z"/>
<path d="M1190 549 c0 -5 5 -7 10 -4 6 3 10 8 10 11 0 2 -4 4 -10 4 -5 0 -10
-5 -10 -11z"/>
<path d="M1430 529 c-22 -18 -22 -19 -3 -10 12 6 25 16 28 21 9 15 3 12 -25
-11z"/>
<path d="M1418 403 c6 -2 18 -2 25 0 6 3 1 5 -13 5 -14 0 -19 -2 -12 -5z"/>
</g>
</svg>
